<?xml version="1.0" encoding="utf-8"?>
<svg version="1.2" baseProfile="tiny"
	 xmlns="http://www.w3.org/2000/svg" xmlns:xlink="http://www.w3.org/1999/xlink" x="0px" y="0px" viewBox="0 0 512 200"
	 overflow="visible" xml:space="preserve">
<g>
	<path fill="#50B8FF" d="M62.5,64.4506836l0.8999023,21.6000977l-1.0795898-2.7001953
		c1.5581055-4.3198242,4.019043-8.0380859,7.3798828-11.1601562c3.3579102-3.1191406,7.1098633-5.5180664,11.25-7.199707
		c4.1401367-1.6791992,8.1279297-2.5200195,11.9697266-2.5200195l-0.3598633,8.2797852
		c-5.3999023,0-10.2910156,1.2011719-14.6699219,3.6000977c-4.3818359,2.4018555-7.8608398,5.6108398-10.4399414,9.6298828
		c-2.5820312,4.0214844-3.8701172,8.5498047-3.8701172,13.5898438v37.2597656h-8.4599609V64.4506836H62.5z"/>
	<path fill="#50B8FF" d="M144.4008789,136.2705078c-7.3212891,0-13.8012695-1.6201172-19.4399414-4.8603516
		c-5.6420898-3.2402344-10.0522461-7.6503906-13.2299805-13.2304688
		c-3.1811523-5.5791016-4.7700195-11.8486328-4.7700195-18.8095703c0-6.8398438,1.6787109-13.078125,5.0400391-18.7197266
		c3.3579102-5.6386719,7.8886719-10.1386719,13.5898438-13.5c5.6982422-3.3579102,12.0288086-5.0400391,18.9897461-5.0400391
		c8.3984375,0,15.4492188,2.4609375,21.1503906,7.3803711c5.6977539,4.921875,9.8095703,11.3393555,12.3295898,19.2592773
		l-61.5595703,23.7607422l-2.5200195-6.1201172l56.3398438-21.9599609l-1.7998047,2.5195312
		c-2.0419922-4.7978516-5.1303711-8.9379883-9.2700195-12.4194336c-4.1401367-3.4794922-9.2109375-5.2202148-15.2104492-5.2202148
		c-5.3999023,0-10.2597656,1.3217773-14.5795898,3.9599609c-4.3203125,2.6411133-7.7709961,6.1821289-10.3500977,10.6201172
		c-2.5820312,4.4404297-3.8701172,9.4804688-3.8701172,15.1201172c0,5.28125,1.2290039,10.2001953,3.6899414,14.7597656
		c2.4580078,4.5615234,5.9091797,8.2207031,10.3500977,10.9794922c4.4379883,2.7617188,9.5400391,4.1396484,15.2998047,4.1396484
		c3.8393555,0,7.5292969-0.7197266,11.0703125-2.1591797c3.5380859-1.4404297,6.6879883-3.2998047,9.449707-5.5800781
		l4.3203125,6.1201172c-3.3608398,2.640625-7.230957,4.8007812-11.6103516,6.4794922
		C153.4287109,135.4287109,148.9599609,136.2705078,144.4008789,136.2705078z"/>
	<path fill="#333333" d="M223.7807617,137.8896484l-32.2197266-71.0991211h3.9599609L225.4008789,133.75h-2.1601562
		l29.8803711-66.9594727h3.7802734l-32.0405273,71.0991211H223.7807617z"/>
	<path fill="#333333" d="M308.2011719,135.9101562c-6.6015625,0-12.5722656-1.5585938-17.9101562-4.6796875
		c-5.3408203-3.1191406-9.6025391-7.3496094-12.7802734-12.6904297c-3.1806641-5.3378906-4.7695312-11.3085938-4.7695312-17.9101562
		c0-6.4794922,1.5888672-12.4199219,4.7695312-17.8193359c3.1777344-5.3999023,7.4394531-9.6889648,12.7802734-12.8701172
		c5.3378906-3.1782227,11.3085938-4.7700195,17.9101562-4.7700195c7.5595703,0,13.9492188,2.190918,19.1699219,6.5703125
		c5.2197266,4.3818359,9.1484375,9.871582,11.7900391,16.4692383l-61.7402344,25.0205078l-1.0800781-3.0605469
		l59.7597656-24.1191406l-0.8994141,1.7998047c-2.5205078-5.2792969-6.0927734-9.8383789-10.7099609-13.6801758
		c-4.6210938-3.8388672-10.1113281-5.7597656-16.4707031-5.7597656c-5.8808594,0-11.2216797,1.4399414-16.0195312,4.3198242
		c-4.8007812,2.8798828-8.6123047,6.78125-11.4306641,11.7001953c-2.8203125,4.921875-4.2294922,10.3212891-4.2294922,16.1992188
		c0,5.5214844,1.3193359,10.7412109,3.9599609,15.6601562c2.6376953,4.921875,6.328125,8.9101562,11.0703125,11.9697266
		c4.7382812,3.0605469,10.3496094,4.5898438,16.8300781,4.5898438c4.1982422,0,8.1894531-0.7783203,11.9697266-2.3398438
		c3.7802734-1.5576172,7.109375-3.6591797,9.9902344-6.2998047l2.3398438,2.5205078
		c-3.2402344,2.7617188-6.9306641,4.9804688-11.0703125,6.6591797
		C317.2910156,135.0693359,312.8808594,135.9101562,308.2011719,135.9101562z"/>
	<path fill="#333333" d="M366.7001953,66.7905273l0.5400391,21.2397461l-0.3603516-1.9794922
		c1.3193359-4.3203125,3.5097656-7.9794922,6.5703125-10.9799805c3.0595703-2.9985352,6.6289062-5.3100586,10.7099609-6.9301758
		c4.078125-1.6201172,8.3388672-2.4892578,12.7802734-2.6098633l-0.1806641,3.2397461
		c-5.28125,0.1210938-10.1416016,1.3500977-14.5800781,3.6899414c-4.4404297,2.340332-7.9814453,5.4902344-10.6191406,9.449707
		c-2.6416016,3.9599609-3.9609375,8.5224609-3.9609375,13.6796875v39.2402344H364V66.7905273H366.7001953z"/>
	<path fill="#333333" d="M435.640625,136.2705078c-3.3613281,0-7.0507812-0.6308594-11.0703125-1.890625
		c-4.0214844-1.2597656-7.3515625-3.5097656-9.9902344-6.75l2.1601562-2.1601562
		c1.7998047,2.28125,4.3789062,4.140625,7.7402344,5.5800781c3.3583984,1.4404297,7.0791016,2.1601562,11.1601562,2.1601562
		c2.8798828,0,5.6699219-0.4775391,8.3701172-1.4394531c2.6992188-0.9599609,4.9492188-2.6103516,6.75-4.9501953
		c1.7998047-2.3398438,2.6992188-5.4902344,2.6992188-9.4501953c0-3.5996094-0.9619141-6.4492188-2.8798828-8.5498047
		c-1.9208984-2.0976562-4.3505859-3.7177734-7.2900391-4.8603516c-2.9414062-1.1386719-6.0292969-2.25-9.2695312-3.3300781
		c-4.4414062-1.5576172-8.3417969-3.5380859-11.7001953-5.9394531c-3.3613281-2.3994141-5.0400391-6.2382812-5.0400391-11.5205078
		c0-3.8383789,0.8691406-7.0195312,2.6103516-9.5395508c1.7382812-2.5200195,4.0498047-4.4379883,6.9296875-5.7597656
		c2.8798828-1.3193359,5.8779297-1.9799805,9-1.9799805c2.7587891,0,5.8779297,0.6020508,9.3603516,1.7998047
		c3.4785156,1.2011719,6.5390625,3.2402344,9.1796875,6.1201172l-1.9804688,2.3398438
		c-2.0410156-2.5200195-4.6796875-4.3198242-7.9199219-5.3999023c-3.2392578-1.0800781-6.0605469-1.6201172-8.4599609-1.6201172
		c-2.1591797,0-4.4091797,0.4501953-6.75,1.3500977c-2.3398438,0.8999023-4.3505859,2.3710938-6.0292969,4.4101562
		c-1.6826172,2.0419922-2.5205078,4.6801758-2.5205078,7.9199219c0,2.8798828,0.7197266,5.2509766,2.1601562,7.109375
		c1.4404297,1.8623047,3.3300781,3.3613281,5.6699219,4.5C430.8701172,95.5625,433.359375,96.6113281,436,97.5703125
		c3.2402344,1.2011719,6.4804688,2.4609375,9.7207031,3.7802734c3.2392578,1.3212891,5.9091797,3.1494141,8.0097656,5.4892578
		c2.0976562,2.3408203,3.1494141,5.5527344,3.1494141,9.6308594c0,3.9589844-0.8095703,7.4101562-2.4296875,10.3496094
		c-1.6201172,2.9414062-3.9912109,5.2509766-7.109375,6.9296875
		C444.21875,135.4287109,440.3203125,136.2705078,435.640625,136.2705078z"/>
</g>
</svg>
